<svg version="1.2" xmlns="http://www.w3.org/2000/svg" viewBox="0 0 31 24" width="25" height="25">
	<title>cart-svg</title>
	<style>
		.s0 { fill: none;stroke: #ffffff;stroke-miterlimit:10 } 
	</style>
	<g id="Layer">
		<path id="Layer" class="s0" d="m22.5 22.5c-0.6 0-1-0.4-1-1 0-0.6 0.4-1 1-1 0.6 0 1 0.4 1 1 0 0.6-0.4 1-1 1z"/>
		<path id="Layer" class="s0" d="m9.5 22.5c-0.6 0-1-0.4-1-1 0-0.6 0.4-1 1-1 0.6 0 1 0.4 1 1 0 0.6-0.4 1-1 1z"/>
		<path id="Layer" fill-rule="evenodd" class="s0" d="m0 1.5h5c0.6 0 1.1 0.4 1.1 1l1.7 13c0.1 0.5 0.6 1 1.1 1h15c0.5 0 1.2-0.4 1.4-0.9l3.3-8.1c0.2-0.5-0.1-0.9-0.6-0.9h-16"/>
	</g>
</svg>